<svg width="493" height="493" viewBox="0 0 493 493" fill="none" xmlns="http://www.w3.org/2000/svg">
<path d="M122.941 374.241C102.841 356.141 88.341 334.441 78.841 311.141C53.641 249.341 65.441 175.841 114.641 125.141L160.041 170.541C162.541 173.041 167.041 171.241 167.641 167.541L192.441 5.24101C192.841 2.54101 190.541 0.241008 187.841 0.641008L25.441 25.441C21.741 26.041 19.941 30.541 22.441 33.041L67.941 78.541C-7.159 155.341 -19.959 270.541 29.341 360.541C44.141 387.641 64.641 412.441 90.741 433.241C135.141 468.541 189.741 485.441 243.941 484.341L254.141 417.641C207.441 421.641 159.441 407.241 122.941 374.241Z" fill="#F7FAFC"/>
<path d="M424.941 414.341C500.041 337.541 512.841 222.341 463.541 132.341C448.741 105.241 428.241 80.441 402.141 59.641C357.741 24.341 303.141 7.44101 248.941 8.54101L238.741 75.241C285.341 71.241 333.441 85.641 369.941 118.641C390.041 136.741 404.541 158.441 414.041 181.741C439.241 243.541 427.441 317.041 378.241 367.741L332.841 322.341C330.341 319.841 325.841 321.641 325.241 325.341L300.441 487.641C300.041 490.341 302.341 492.641 305.041 492.241L467.441 467.441C471.141 466.841 472.841 462.341 470.441 459.841L424.941 414.341Z" fill="#F7FAFC"/>
</svg>
